<svg width="49" height="48" viewBox="0 0 49 48" fill="none" xmlns="http://www.w3.org/2000/svg">
    <g filter="url(#filterFilledStar)">
        <path
            d="M22.592 2.07128C23.1788 0.204102 25.8212 0.204099 26.408 2.07127L30.6831 15.6746C30.945 16.508 31.7175 17.075 32.5911 17.075H46.5636C48.4849 17.075 49.301 19.5202 47.7648 20.6741L36.3473 29.2506C35.6696 29.7597 35.3864 30.6407 35.6405 31.4493L39.9744 45.2396C40.5571 47.094 38.4194 48.6058 36.8652 47.4383L25.7012 39.0523C24.9896 38.5177 24.0104 38.5177 23.2988 39.0523L12.1348 47.4383C10.5806 48.6058 8.44286 47.094 9.02564 45.2396L13.3595 31.4493C13.6136 30.6407 13.3304 29.7597 12.6527 29.2506L1.23515 20.6741C-0.300997 19.5202 0.515084 17.075 2.43635 17.075H16.4089C17.2825 17.075 18.055 16.508 18.3169 15.6746L22.592 2.07128Z"
            fill="white" />
        <path
            d="M23.069 2.22118C23.5091 0.820798 25.4909 0.820799 25.931 2.22118L30.2061 15.8245C30.5335 16.8663 31.4991 17.575 32.5911 17.575H46.5636C48.0046 17.575 48.6167 19.4089 47.4645 20.2743L36.047 28.8508C35.1999 29.4872 34.8459 30.5884 35.1635 31.5992L39.4974 45.3895C39.9344 46.7803 38.3311 47.9141 37.1655 47.0385L26.0015 38.6525C25.112 37.9843 23.888 37.9843 22.9985 38.6525L11.8345 47.0385C10.6689 47.9141 9.06555 46.7803 9.50264 45.3895L13.8365 31.5992C14.1541 30.5884 13.8001 29.4872 12.953 28.8508L1.53545 20.2743C0.38334 19.4089 0.9954 17.575 2.43635 17.575H16.4089C17.5009 17.575 18.4665 16.8663 18.7939 15.8245L23.069 2.22118Z"
            stroke="url(#paintFilledStar)" stroke-opacity="0.4" />
    </g>
    <defs>
        <filter id="filterFilledStar" x="-44.5684" y="-44.3291" width="138.137" height="137.177"
            filterUnits="userSpaceOnUse" color-interpolation-filters="sRGB">
            <feFlood flood-opacity="0" result="BackgroundImageFix" />
            <feGaussianBlur in="BackgroundImage" stdDeviation="22.5" />
            <feComposite in2="SourceAlpha" operator="in" result="effect1_backgroundBlur_174_11021" />
            <feBlend mode="normal" in="SourceGraphic" in2="effect1_backgroundBlur_174_11021" result="shape" />
        </filter>
        <linearGradient id="paintFilledStar" x1="-5" y1="-4" x2="65.7631" y2="16.6076"
            gradientUnits="userSpaceOnUse">
            <stop stop-color="white" />
            <stop offset="1" stop-color="white" stop-opacity="0.7" />
        </linearGradient>
    </defs>
</svg>